# MagicaVoxel @ Ephtracy

# material
mtllib BackBoard.mtl
usemtl palette

# normals
vn -1 0 0
vn 1 0 0
vn 0 0 1
vn 0 0 -1
vn 0 -1 0
vn 0 1 0

# texcoords
vt 0.748047 0.5
vt 0.798828 0.5
vt 0.841797 0.5
vt 0.966797 0.5

# verts
v -20 0 1.5
v -20 0 -1.5
v -20 30 1.5
v -20 30 -1.5
v -2 6 0.5
v -2 6 -0.5
v -2 8 0.5
v -2 8 -0.5
v -2 14 0.5
v -2 14 -0.5
v -2 16 0.5
v -2 16 -0.5
v -2 22 0.5
v -2 22 -0.5
v -2 24 0.5
v -2 24 -0.5
v -1 3 1.5
v -1 3 -0.5
v -1 6 0.5
v -1 6 -0.5
v -1 8 0.5
v -1 8 -0.5
v -1 14 0.5
v -1 14 -0.5
v -1 16 0.5
v -1 16 -0.5
v -1 22 0.5
v -1 22 -0.5
v -1 24 0.5
v -1 24 -0.5
v -1 27 1.5
v -1 27 -0.5
v -18 3 1.5
v -18 3 -0.5
v -18 6 0.5
v -18 6 -0.5
v -18 8 0.5
v -18 8 -0.5
v -18 14 0.5
v -18 14 -0.5
v -18 16 0.5
v -18 16 -0.5
v -18 22 0.5
v -18 22 -0.5
v -18 24 0.5
v -18 24 -0.5
v -18 27 1.5
v -18 27 -0.5
v -17 6 0.5
v -17 6 -0.5
v -17 8 0.5
v -17 8 -0.5
v -17 14 0.5
v -17 14 -0.5
v -17 16 0.5
v -17 16 -0.5
v -17 22 0.5
v -17 22 -0.5
v -17 24 0.5
v -17 24 -0.5
v 20 0 1.5
v 20 0 -1.5
v 20 30 1.5
v 20 30 -1.5
v -20 0 1.5
v -20 30 1.5
v -18 3 1.5
v -18 27 1.5
v -1 3 1.5
v -1 27 1.5
v 20 0 1.5
v 20 30 1.5
v -18 6 0.5
v -18 8 0.5
v -18 14 0.5
v -18 16 0.5
v -18 22 0.5
v -18 24 0.5
v -17 6 0.5
v -17 8 0.5
v -17 14 0.5
v -17 16 0.5
v -17 22 0.5
v -17 24 0.5
v -2 6 0.5
v -2 8 0.5
v -2 14 0.5
v -2 16 0.5
v -2 22 0.5
v -2 24 0.5
v -1 6 0.5
v -1 8 0.5
v -1 14 0.5
v -1 16 0.5
v -1 22 0.5
v -1 24 0.5
v -18 3 -0.5
v -18 6 -0.5
v -18 8 -0.5
v -18 14 -0.5
v -18 16 -0.5
v -18 22 -0.5
v -18 24 -0.5
v -18 27 -0.5
v -17 6 -0.5
v -17 8 -0.5
v -17 14 -0.5
v -17 16 -0.5
v -17 22 -0.5
v -17 24 -0.5
v -2 6 -0.5
v -2 8 -0.5
v -2 14 -0.5
v -2 16 -0.5
v -2 22 -0.5
v -2 24 -0.5
v -1 3 -0.5
v -1 6 -0.5
v -1 8 -0.5
v -1 14 -0.5
v -1 16 -0.5
v -1 22 -0.5
v -1 24 -0.5
v -1 27 -0.5
v -20 0 -1.5
v -20 30 -1.5
v 20 0 -1.5
v 20 30 -1.5
v -20 0 1.5
v 20 0 1.5
v -20 0 -1.5
v 20 0 -1.5
v -18 6 0.5
v -17 6 0.5
v -2 6 0.5
v -1 6 0.5
v -18 6 -0.5
v -17 6 -0.5
v -2 6 -0.5
v -1 6 -0.5
v -18 14 0.5
v -17 14 0.5
v -2 14 0.5
v -1 14 0.5
v -18 14 -0.5
v -17 14 -0.5
v -2 14 -0.5
v -1 14 -0.5
v -18 22 0.5
v -17 22 0.5
v -2 22 0.5
v -1 22 0.5
v -18 22 -0.5
v -17 22 -0.5
v -2 22 -0.5
v -1 22 -0.5
v -18 27 1.5
v -1 27 1.5
v -18 27 -0.5
v -1 27 -0.5
v -18 3 1.5
v -1 3 1.5
v -18 3 -0.5
v -1 3 -0.5
v -18 8 0.5
v -17 8 0.5
v -2 8 0.5
v -1 8 0.5
v -18 8 -0.5
v -17 8 -0.5
v -2 8 -0.5
v -1 8 -0.5
v -18 16 0.5
v -17 16 0.5
v -2 16 0.5
v -1 16 0.5
v -18 16 -0.5
v -17 16 -0.5
v -2 16 -0.5
v -1 16 -0.5
v -18 24 0.5
v -17 24 0.5
v -2 24 0.5
v -1 24 0.5
v -18 24 -0.5
v -17 24 -0.5
v -2 24 -0.5
v -1 24 -0.5
v -20 30 1.5
v 20 30 1.5
v -20 30 -1.5
v 20 30 -1.5

# faces
f 3/4/1 2/4/1 1/4/1
f 4/4/1 2/4/1 3/4/1
f 7/2/1 6/2/1 5/2/1
f 8/2/1 6/2/1 7/2/1
f 11/1/1 10/1/1 9/1/1
f 12/1/1 10/1/1 11/1/1
f 15/3/1 14/3/1 13/3/1
f 16/3/1 14/3/1 15/3/1
f 19/4/1 18/4/1 17/4/1
f 20/4/1 18/4/1 19/4/1
f 21/4/1 19/4/1 17/4/1
f 23/4/1 21/4/1 17/4/1
f 23/4/1 22/4/1 21/4/1
f 24/4/1 22/4/1 23/4/1
f 25/4/1 23/4/1 17/4/1
f 27/4/1 25/4/1 17/4/1
f 27/4/1 26/4/1 25/4/1
f 28/4/1 26/4/1 27/4/1
f 29/4/1 27/4/1 17/4/1
f 31/4/1 29/4/1 17/4/1
f 31/4/1 30/4/1 29/4/1
f 32/4/1 30/4/1 31/4/1
f 33/4/2 34/4/2 35/4/2
f 35/4/2 34/4/2 36/4/2
f 33/4/2 35/4/2 37/4/2
f 33/4/2 37/4/2 39/4/2
f 37/4/2 38/4/2 39/4/2
f 39/4/2 38/4/2 40/4/2
f 33/4/2 39/4/2 41/4/2
f 33/4/2 41/4/2 43/4/2
f 41/4/2 42/4/2 43/4/2
f 43/4/2 42/4/2 44/4/2
f 33/4/2 43/4/2 45/4/2
f 33/4/2 45/4/2 47/4/2
f 45/4/2 46/4/2 47/4/2
f 47/4/2 46/4/2 48/4/2
f 49/2/2 50/2/2 51/2/2
f 51/2/2 50/2/2 52/2/2
f 53/1/2 54/1/2 55/1/2
f 55/1/2 54/1/2 56/1/2
f 57/3/2 58/3/2 59/3/2
f 59/3/2 58/3/2 60/3/2
f 61/4/2 62/4/2 63/4/2
f 63/4/2 62/4/2 64/4/2
f 67/4/3 66/4/3 65/4/3
f 68/4/3 66/4/3 67/4/3
f 69/4/3 67/4/3 65/4/3
f 70/4/3 66/4/3 68/4/3
f 71/4/3 69/4/3 65/4/3
f 71/4/3 70/4/3 69/4/3
f 72/4/3 66/4/3 70/4/3
f 72/4/3 70/4/3 71/4/3
f 79/2/3 74/2/3 73/2/3
f 80/2/3 74/2/3 79/2/3
f 81/1/3 76/1/3 75/1/3
f 82/1/3 76/1/3 81/1/3
f 83/3/3 78/3/3 77/3/3
f 84/3/3 78/3/3 83/3/3
f 91/2/3 86/2/3 85/2/3
f 92/2/3 86/2/3 91/2/3
f 93/1/3 88/1/3 87/1/3
f 94/1/3 88/1/3 93/1/3
f 95/3/3 90/3/3 89/3/3
f 96/3/3 90/3/3 95/3/3
f 105/4/3 98/4/3 97/4/3
f 106/4/3 100/4/3 99/4/3
f 107/4/3 100/4/3 106/4/3
f 108/4/3 102/4/3 101/4/3
f 109/4/3 102/4/3 108/4/3
f 110/4/3 104/4/3 103/4/3
f 111/4/3 109/4/3 108/4/3
f 111/4/3 110/4/3 109/4/3
f 111/4/3 105/4/3 97/4/3
f 111/4/3 107/4/3 106/4/3
f 111/4/3 108/4/3 107/4/3
f 111/4/3 106/4/3 105/4/3
f 112/4/3 110/4/3 111/4/3
f 113/4/3 110/4/3 112/4/3
f 114/4/3 110/4/3 113/4/3
f 115/4/3 110/4/3 114/4/3
f 116/4/3 104/4/3 110/4/3
f 116/4/3 110/4/3 115/4/3
f 117/4/3 111/4/3 97/4/3
f 118/4/3 111/4/3 117/4/3
f 119/4/3 113/4/3 112/4/3
f 120/4/3 113/4/3 119/4/3
f 121/4/3 115/4/3 114/4/3
f 122/4/3 115/4/3 121/4/3
f 123/4/3 104/4/3 116/4/3
f 124/4/3 104/4/3 123/4/3
f 125/4/4 126/4/4 127/4/4
f 127/4/4 126/4/4 128/4/4
f 131/4/5 130/4/5 129/4/5
f 132/4/5 130/4/5 131/4/5
f 137/2/5 134/2/5 133/2/5
f 138/2/5 134/2/5 137/2/5
f 139/2/5 136/2/5 135/2/5
f 140/2/5 136/2/5 139/2/5
f 145/1/5 142/1/5 141/1/5
f 146/1/5 142/1/5 145/1/5
f 147/1/5 144/1/5 143/1/5
f 148/1/5 144/1/5 147/1/5
f 153/3/5 150/3/5 149/3/5
f 154/3/5 150/3/5 153/3/5
f 155/3/5 152/3/5 151/3/5
f 156/3/5 152/3/5 155/3/5
f 159/4/5 158/4/5 157/4/5
f 160/4/5 158/4/5 159/4/5
f 161/4/6 162/4/6 163/4/6
f 163/4/6 162/4/6 164/4/6
f 165/2/6 166/2/6 169/2/6
f 169/2/6 166/2/6 170/2/6
f 167/2/6 168/2/6 171/2/6
f 171/2/6 168/2/6 172/2/6
f 173/1/6 174/1/6 177/1/6
f 177/1/6 174/1/6 178/1/6
f 175/1/6 176/1/6 179/1/6
f 179/1/6 176/1/6 180/1/6
f 181/3/6 182/3/6 185/3/6
f 185/3/6 182/3/6 186/3/6
f 183/3/6 184/3/6 187/3/6
f 187/3/6 184/3/6 188/3/6
f 189/4/6 190/4/6 191/4/6
f 191/4/6 190/4/6 192/4/6
